<svg id="visual" viewBox="0 0 960 540" width="960" height="540" xmlns="http://www.w3.org/2000/svg" xmlns:xlink="http://www.w3.org/1999/xlink" version="1.1"><rect x="0" y="0" width="960" height="540" fill="#2d2b2c"></rect><path d="M0 105L22.8 104C45.7 103 91.3 101 137 101.2C182.7 101.3 228.3 103.7 274 102.7C319.7 101.7 365.3 97.3 411.2 94.8C457 92.3 503 91.7 548.8 95.3C594.7 99 640.3 107 686 109.7C731.7 112.3 777.3 109.7 823 103.8C868.7 98 914.3 89 937.2 84.5L960 80L960 0L937.2 0C914.3 0 868.7 0 823 0C777.3 0 731.7 0 686 0C640.3 0 594.7 0 548.8 0C503 0 457 0 411.2 0C365.3 0 319.7 0 274 0C228.3 0 182.7 0 137 0C91.3 0 45.7 0 22.8 0L0 0Z" fill="#ffffff"></path><path d="M0 59L22.8 58.3C45.7 57.7 91.3 56.3 137 53C182.7 49.7 228.3 44.3 274 42.8C319.7 41.3 365.3 43.7 411.2 48.7C457 53.7 503 61.3 548.8 64C594.7 66.7 640.3 64.3 686 62.3C731.7 60.3 777.3 58.7 823 56.5C868.7 54.3 914.3 51.7 937.2 50.3L960 49L960 0L937.2 0C914.3 0 868.7 0 823 0C777.3 0 731.7 0 686 0C640.3 0 594.7 0 548.8 0C503 0 457 0 411.2 0C365.3 0 319.7 0 274 0C228.3 0 182.7 0 137 0C91.3 0 45.7 0 22.8 0L0 0Z" fill="#1ba488"></path></svg>