<svg id="visual" viewBox="0 0 960 540" width="960" height="540" xmlns="http://www.w3.org/2000/svg" xmlns:xlink="http://www.w3.org/1999/xlink" version="1.1"><rect x="0" y="0" width="960" height="540" fill="#2d2b2c"></rect><path d="M0 70L22.8 69.2C45.7 68.3 91.3 66.7 137 66.7C182.7 66.7 228.3 68.3 274 67.8C319.7 67.3 365.3 64.7 411.2 63C457 61.3 503 60.7 548.8 63C594.7 65.3 640.3 70.7 686 72.5C731.7 74.3 777.3 72.7 823 68.8C868.7 65 914.3 59 937.2 56L960 53L960 0L937.2 0C914.3 0 868.7 0 823 0C777.3 0 731.7 0 686 0C640.3 0 594.7 0 548.8 0C503 0 457 0 411.2 0C365.3 0 319.7 0 274 0C228.3 0 182.7 0 137 0C91.3 0 45.7 0 22.8 0L0 0Z" fill="#ffffff"></path><path d="M0 39L22.8 38.5C45.7 38 91.3 37 137 34.8C182.7 32.7 228.3 29.3 274 28.3C319.7 27.3 365.3 28.7 411.2 32C457 35.3 503 40.7 548.8 42.5C594.7 44.3 640.3 42.7 686 41.3C731.7 40 777.3 39 823 37.7C868.7 36.3 914.3 34.7 937.2 33.8L960 33L960 0L937.2 0C914.3 0 868.7 0 823 0C777.3 0 731.7 0 686 0C640.3 0 594.7 0 548.8 0C503 0 457 0 411.2 0C365.3 0 319.7 0 274 0C228.3 0 182.7 0 137 0C91.3 0 45.7 0 22.8 0L0 0Z" fill="#1ba488"></path></svg>